{"title":"Iron Man 3 2013 Full Cam New Audio AAC x264-SSDD","uid":8449558,"size":577672727,"categoryP":"video","categoryS":"movies","magnet":"?xt=urn:btih:6555f7ea9a94578e3ebb14e23a4adc21f4d9c5bf&amp;dn=Iron+Man+3+2013+Full+Cam+New+Audio+AAC+x264-SSDD&amp;tr=udp%3A%2F%2Ftracker.openbittorrent.com%3A80&amp;tr=udp%3A%2F%2Fopen.demonii.com%3A1337&amp;tr=udp%3A%2F%2Ftracker.coppersurfer.tk%3A6969&amp;tr=udp%3A%2F%2Fexodus.desync.com%3A6969","seeders":0,"leechers":0,"uploader":"Gh0stNet","files":2,"time":1367963751,"description":"Source - Iron Man 3 2013  FULL CAM NEW AUDIO XViD - JUSTICE\n\nNOTES - Enjoy.  Going on the info im given im told its a new audio source, i cant clarify this however.\n\nGeneral\nComplete name                            : Iron Man 3 2013 Full Cam New Audio AAC x264-SSDD.mp4\nFormat                                   : MPEG-4\nFormat profile                           : Base Media\nCodec ID                                 : isom\nFile size                                : 550 MiB\nDuration                                 : 1h 59mn\nOverall bit rate mode                    : Variable\nOverall bit rate                         : 643 Kbps\n\nVideo\nID                                       : 1\nFormat                                   : AVC\nFormat/Info                              : Advanced Video Codec\nFormat profile                           : &lt;a class=&quot;__cf_email__&quot; href=&quot;/cdn-cgi/l/email-protection&quot; data-cfemail=&quot;82caebe5eac2ceb6acb3&quot;&gt;[email&amp;#160;protected]&lt;/a&gt;&lt;script data-cfhash='f9e31' type=&quot;text/javascript&quot;&gt;\n/* &lt;![CDATA[ */!function(){try{var t=&quot;currentScript&quot;in document?document.currentScript:function(){for(var t=document.getElementsByTagName(&quot;script&quot;),e=t.length;e--;)if(t[e].getAttribute(&quot;data-cfhash&quot;))return t[e]}();if(t&amp;&amp;t.previousSibling){var e,r,n,i,c=t.previousSibling,a=c.getAttribute(&quot;data-cfemail&quot;);if(a){for(e=&quot;&quot;,r=parseInt(a.substr(0,2),16),n=2;a.length-n;n+=2)i=parseInt(a.substr(n,2),16)^r,e+=String.fromCharCode(i);e=document.createTextNode(e),c.parentNode.replaceChild(e,c)}t.parentNode.removeChild(t);}}catch(u){}}()/* ]]&gt; */&lt;/script&gt;\nFormat settings, CABAC                   : Yes\nFormat settings, ReFrames                : 4 frames\nCodec ID                                 : avc1\nCodec ID/Info                            : Advanced Video Coding\nDuration                                 : 1h 59mn\nBit rate                                 : 575 Kbps\nMaximum bit rate                         : 1 411 Kbps\nWidth                                    : 720 pixels\nHeight                                   : 288 pixels\nDisplay aspect ratio                     : 2.500\nFrame rate mode                          : Constant\nFrame rate                               : 25.000 fps\nColor space                              : YUV\nChroma subsampling                       : 4:2:0\nBit depth                                : 8 bits\nScan type                                : Progressive\nBits/(Pixel*Frame)                       : 0.111\nStream size                              : 493 MiB (89%)\nWriting library                          : x264 core 130 r2273 b3065e6\n\nAudio\nID                                       : 2\nFormat                                   : AAC\nFormat/Info                              : Advanced Audio Codec\nFormat profile                           : LC\nCodec ID                                 : 40\nDuration                                 : 1h 59mn\nBit rate mode                            : Variable\nBit rate                                 : 64.0 Kbps\nMaximum bit rate                         : 67.6 Kbps\nChannel(s)                               : 2 channels\nChannel positions                        : Front: L R\nSampling rate                            : 48.0 KHz\nCompression mode                         : Lossy\nStream size                              : 54.8 MiB (10%)\n\nScreens: &lt;a href=&quot;\nhttp://i.imgur.com/Zrt9RYP.png&quot; rel=&quot;nofollow&quot; target=&quot;_NEW&quot;&gt;\nhttp://i.imgur.com/Zrt9RYP.png&lt;/a&gt; &lt;a href=&quot;\nhttp://i.imgur.com/9ap09NJ.png&quot; rel=&quot;nofollow&quot; target=&quot;_NEW&quot;&gt;\nhttp://i.imgur.com/9ap09NJ.png&lt;/a&gt; &lt;a href=&quot;\nhttp://i.imgur.com/4O4hJL8.png&quot; rel=&quot;nofollow&quot; target=&quot;_NEW&quot;&gt;\nhttp://i.imgur.com/4O4hJL8.png&lt;/a&gt; &lt;a href=&quot;\nhttp://i.imgur.com/FhuQYUL.png&quot; rel=&quot;nofollow&quot; target=&quot;_NEW&quot;&gt;\nhttp://i.imgur.com/FhuQYUL.png&lt;/a&gt;","torrent":{"xt":"urn:btih:6555f7ea9a94578e3ebb14e23a4adc21f4d9c5bf","amp;dn":"Iron+Man+3+2013+Full+Cam+New+Audio+AAC+x264-SSDD","amp;tr":["udp%3A%2F%2Ftracker.openbittorrent.com%3A80","udp%3A%2F%2Fopen.demonii.com%3A1337","udp%3A%2F%2Ftracker.coppersurfer.tk%3A6969","udp%3A%2F%2Fexodus.desync.com%3A6969"],"infoHash":"6555f7ea9a94578e3ebb14e23a4adc21f4d9c5bf","infoHashBuffer":{"type":"Buffer","data":[101,85,247,234,154,148,87,142,62,187,20,226,58,74,220,33,244,217,197,191]},"announce":[],"urlList":[]}}